<?xml version="1.0" encoding="utf-8"?>
<!-- Generator: Adobe Illustrator 16.0.0, SVG Export Plug-In . SVG Version: 6.00 Build 0)  -->
<!DOCTYPE svg PUBLIC "-//W3C//DTD SVG 1.1//EN" "http://www.w3.org/Graphics/SVG/1.1/DTD/svg11.dtd">
<svg version="1.1" id="Layer_1" xmlns="http://www.w3.org/2000/svg" xmlns:xlink="http://www.w3.org/1999/xlink" x="0px" y="0px"
	 width="149.5px" height="50px" viewBox="0 0 149.5 50" enable-background="new 0 0 149.5 50" xml:space="preserve">
<g>
	<g>
		<g>
			<path fill="#FFFFFF" d="M59.235,21.951c0-2.033,1.464-3.396,4.958-3.396s4.957,1.362,4.957,3.396v5.898
				c0,2.032-1.463,3.396-4.957,3.396s-4.958-1.364-4.958-3.396V21.951z M66.797,22.149c0-1.065-0.745-1.66-2.604-1.66
				s-2.604,0.595-2.604,1.66v5.502c0,1.066,0.745,1.662,2.604,1.662s2.604-0.596,2.604-1.662V22.149z"/>
			<path fill="#FFFFFF" d="M74.181,18.754c0.347,0,0.445,0.148,0.472,0.47l0.049,0.794c0.694-0.594,2.059-1.462,4.116-1.462
				c2.305,0,3.494,1.338,3.494,3.172v8.824c0,0.347-0.123,0.495-0.445,0.495h-1.439c-0.322,0-0.471-0.148-0.471-0.495v-8.254
				c0-1.016-0.469-1.635-1.832-1.635c-1.588,0-2.826,0.842-3.374,1.264v8.625c0,0.347-0.124,0.495-0.445,0.495h-1.437
				c-0.348,0-0.471-0.148-0.471-0.495V19.224c0-0.321,0.123-0.47,0.471-0.47H74.181z"/>
			<path fill="#FFFFFF" d="M88.036,16.448c0,0.322-0.123,0.471-0.447,0.471h-1.436c-0.348,0-0.473-0.148-0.473-0.471V14.22
				c0-0.349,0.125-0.496,0.473-0.496h1.436c0.324,0,0.447,0.147,0.447,0.496V16.448z M88.036,30.552
				c0,0.347-0.123,0.495-0.447,0.495h-1.436c-0.348,0-0.473-0.148-0.473-0.495V19.25c0-0.348,0.125-0.496,0.473-0.496h1.436
				c0.324,0,0.447,0.148,0.447,0.496V30.552z"/>
			<path fill="#FFFFFF" d="M99.659,29.684c-0.717,0.57-2.279,1.562-4.461,1.562c-2.305,0-3.32-1.166-3.32-2.777V21.48
				c0-1.611,1.016-2.776,3.32-2.776c2.182,0,3.719,0.991,4.461,1.587v-6.42c0-0.1,0.049-0.147,0.15-0.147h0.098
				c0.1,0,0.15,0.048,0.15,0.147v17.027c0,0.099-0.051,0.148-0.15,0.148h-0.049c-0.1,0-0.15-0.05-0.15-0.148L99.659,29.684z
				 M92.274,28.469c0,1.364,0.916,2.405,2.924,2.405c2.332,0,3.893-1.166,4.461-1.636v-8.502c-0.568-0.494-2.129-1.66-4.461-1.66
				c-2.008,0-2.924,1.04-2.924,2.404V28.469z"/>
			<path fill="#FFFFFF" d="M105.213,16.325c0,0.099-0.053,0.149-0.152,0.149h-0.098c-0.098,0-0.148-0.051-0.148-0.149v-2.454
				c0-0.1,0.051-0.147,0.148-0.147h0.098c0.1,0,0.152,0.048,0.152,0.147V16.325z M105.213,30.898c0,0.099-0.053,0.148-0.152,0.148
				h-0.098c-0.098,0-0.148-0.05-0.148-0.148V19.052c0-0.099,0.051-0.149,0.148-0.149h0.098c0.1,0,0.152,0.051,0.152,0.149V30.898z"
				/>
			<path fill="#FFFFFF" d="M109.672,28.469V21.48c0-1.611,1.018-2.776,3.322-2.776c2.182,0,3.742,0.991,4.461,1.587l0.049-1.239
				c0-0.099,0.051-0.149,0.148-0.149h0.051c0.1,0,0.148,0.051,0.148,0.149v14.449c0,1.611-0.844,2.775-4.039,2.775h-3.273
				c-0.098,0-0.148-0.049-0.148-0.147v-0.075c0-0.1,0.051-0.149,0.148-0.149h3.273c2.9,0,3.643-1.04,3.643-2.403v-3.817
				c-0.742,0.596-2.279,1.562-4.461,1.562C110.69,31.246,109.672,30.08,109.672,28.469z M110.069,28.469
				c0,1.364,0.918,2.405,2.926,2.405c2.328,0,3.891-1.166,4.461-1.636v-8.502c-0.57-0.494-2.133-1.66-4.461-1.66
				c-2.008,0-2.926,1.04-2.926,2.404V28.469z"/>
			<path fill="#FFFFFF" d="M123.006,16.325c0,0.099-0.049,0.149-0.148,0.149h-0.1c-0.1,0-0.146-0.051-0.146-0.149v-2.454
				c0-0.1,0.047-0.147,0.146-0.147h0.1c0.1,0,0.148,0.048,0.148,0.147V16.325z M123.006,30.898c0,0.099-0.049,0.148-0.148,0.148
				h-0.1c-0.1,0-0.146-0.05-0.146-0.148V19.052c0-0.099,0.047-0.149,0.146-0.149h0.1c0.1,0,0.148,0.051,0.148,0.149V30.898z"/>
			<path fill="#FFFFFF" d="M131.782,18.928c0.098,0,0.148,0.05,0.148,0.148v0.074c0,0.1-0.051,0.148-0.148,0.148h-3.248v8.974
				c0,1.362,0.744,2.402,3.645,2.402h0.322c0.098,0,0.148,0.049,0.148,0.15v0.073c0,0.099-0.051,0.148-0.148,0.148h-0.322
				c-3.199,0-4.041-1.165-4.041-2.774v-8.974h-1.734c-0.1,0-0.148-0.049-0.148-0.148v-0.024c0-0.1,0.049-0.148,0.148-0.148
				l1.412-0.05h0.322v-2.825c0-0.1,0.051-0.15,0.148-0.15h0.1c0.1,0,0.148,0.051,0.148,0.15v2.825H131.782z"/>
			<path fill="#FFFFFF" d="M135.649,21.48c0-1.611,0.816-2.776,4.014-2.776s4.014,1.165,4.014,2.776v9.418
				c0,0.099-0.047,0.148-0.148,0.148h-0.049c-0.098,0-0.148-0.05-0.148-0.148l-0.049-1.215c-0.719,0.57-2.279,1.562-4.461,1.562
				c-2.332,0-3.322-1.166-3.322-2.777v-1.338c0-1.611,0.967-2.752,2.801-2.752h4.982V21.48c0-1.364-0.719-2.404-3.619-2.404
				s-3.619,1.04-3.619,2.404v0.521c0,0.099-0.049,0.148-0.148,0.148h-0.1c-0.1,0-0.146-0.05-0.146-0.148V21.48z M143.282,29.238
				v-4.486h-4.982c-1.586,0-2.404,1.017-2.404,2.379v1.338c0,1.364,0.893,2.405,2.926,2.405
				C141.149,30.874,142.711,29.708,143.282,29.238z"/>
			<path fill="#FFFFFF" d="M148.684,30.898c0,0.099-0.051,0.148-0.148,0.148h-0.1c-0.098,0-0.148-0.05-0.148-0.148V13.871
				c0-0.1,0.051-0.147,0.148-0.147h0.1c0.098,0,0.148,0.048,0.148,0.147V30.898z"/>
		</g>
	</g>
	<g>
		<g>
			<path fill="#FFFFFF" d="M22.8,44.248l0.333,0.002c4.848-0.019,9.595-1.726,13.433-4.709l4.019,4.07
				c0.176,0.168,0.442,0.227,0.66,0.131c0.229-0.098,0.379-0.315,0.382-0.565l-0.003-11.979c0-0.337-0.271-0.608-0.604-0.61
				l-11.833,0.002c-0.008-0.002-0.02-0.002-0.028-0.002c-0.338,0.002-0.607,0.273-0.607,0.61c0,0.226,0.122,0.423,0.305,0.529
				l4.22,4.322c-2.918,2.12-6.438,3.304-10.143,3.304c-4.507-0.024-8.74-1.798-11.934-4.993c-3.251-3.251-5.042-7.587-5.042-12.205
				c0.009-1.359,0.233-2.688,0.562-3.985c0,0-2.028,0.128-2.677-0.177c-0.653-0.304-1.203-1.413-1.778-2.101
				c-0.637,2.054-0.991,4.203-1.005,6.395c0,5.831,2.292,11.342,6.451,15.502C11.609,41.889,17.035,44.181,22.8,44.248z"/>
			<path fill="#FFFFFF" d="M16.972,13.948c0.007,0,0.02,0,0.028,0.001c0.337-0.001,0.606-0.271,0.606-0.607
				c0-0.226-0.122-0.427-0.303-0.53l-4.222-4.324C16,6.364,19.521,5.181,23.226,5.182c4.506,0.027,8.739,1.802,11.931,4.995
				c3.253,3.253,5.044,7.588,5.044,12.205c-0.007,1.36-0.232,2.687-0.562,3.988c0,0,2.027-0.131,2.679,0.172
				c0.652,0.303,1.204,1.415,1.777,2.106c0.636-2.056,0.991-4.206,1.006-6.396c0-5.832-2.292-11.347-6.454-15.506
				c-4.1-4.101-9.525-6.393-15.288-6.458l-0.334-0.004C18.177,0.304,13.427,2.01,9.591,4.996l-4.02-4.068
				C5.396,0.757,5.131,0.7,4.911,0.794c-0.229,0.098-0.379,0.313-0.38,0.568L4.533,13.34c-0.001,0.339,0.273,0.608,0.604,0.608
				H16.972z"/>
		</g>
	</g>
</g>
</svg>
