<?xml version="1.0" encoding="utf-8"?>
<!-- Generator: Adobe Illustrator 16.0.0, SVG Export Plug-In . SVG Version: 6.00 Build 0)  -->
<!DOCTYPE svg PUBLIC "-//W3C//DTD SVG 1.1//EN" "http://www.w3.org/Graphics/SVG/1.1/DTD/svg11.dtd">
<svg version="1.1" id="Design" xmlns="http://www.w3.org/2000/svg" xmlns:xlink="http://www.w3.org/1999/xlink" x="0px" y="0px"
	 width="288px" height="288px" viewBox="0 0 288 288" enable-background="new 0 0 288 288" xml:space="preserve">
<g>
	<linearGradient id="XMLID_2_" gradientUnits="userSpaceOnUse" x1="-9.765625e-04" y1="144" x2="288" y2="144">
		<stop  offset="0" style="stop-color:#101010"/>
		<stop  offset="1" style="stop-color:#484848"/>
	</linearGradient>
	<rect id="XMLID_7_" x="-0.001" fill="url(#XMLID_2_)" width="288.001" height="288"/>
	<g>
		
			<linearGradient id="SVGID_1_" gradientUnits="userSpaceOnUse" x1="-946.9941" y1="1225.9326" x2="-946.4545" y2="1225.3929" gradientTransform="matrix(150 0 0 -91 142036 111703)">
			<stop  offset="0" style="stop-color:#090909"/>
			<stop  offset="1" style="stop-color:#121212"/>
		</linearGradient>
		<polygon fill="url(#SVGID_1_)" points="0,182.174 68.854,191.604 35.137,141.344 0,173.904 		"/>
		
			<linearGradient id="SVGID_2_" gradientUnits="userSpaceOnUse" x1="-946.9028" y1="1226.9746" x2="-946.3687" y2="1226.4404" gradientTransform="matrix(150 0 0 -62 142036 76250)">
			<stop  offset="0" style="stop-color:#505050"/>
			<stop  offset="1" style="stop-color:#303030"/>
		</linearGradient>
		<polygon fill="url(#SVGID_2_)" points="0,182.174 0,185.18 57.614,215.352 68.854,191.604 		"/>
		
			<linearGradient id="triangle36_22_" gradientUnits="userSpaceOnUse" x1="-955.9448" y1="1227.8828" x2="-955.4166" y2="1227.3546" gradientTransform="matrix(89 0 0 -43 85129 52994.0625)">
			<stop  offset="0" style="stop-color:#020202"/>
			<stop  offset="1" style="stop-color:#020202"/>
		</linearGradient>
		<polygon id="triangle36_21_" fill="url(#triangle36_22_)" points="57.614,215.352 103.081,204.306 68.854,191.604 		"/>
		
			<linearGradient id="SVGID_3_" gradientUnits="userSpaceOnUse" x1="-943.668" y1="1225.4814" x2="-943.1362" y2="1224.9497" gradientTransform="matrix(204 0 0 -236 192462 289400)">
			<stop  offset="0" style="stop-color:#060606"/>
			<stop  offset="1" style="stop-color:#1E1E1E"/>
		</linearGradient>
		<polygon fill="url(#SVGID_3_)" points="20.144,288 63.745,271.132 0,190.896 0,288 		"/>
		
			<linearGradient id="SVGID_4_" gradientUnits="userSpaceOnUse" x1="-943.4956" y1="1227.6426" x2="-942.9678" y2="1227.1147" gradientTransform="matrix(204 0 0 -77 192462 94788)">
			<stop  offset="0" style="stop-color:#060606"/>
			<stop  offset="1" style="stop-color:#212121"/>
		</linearGradient>
		<polygon fill="url(#SVGID_4_)" points="53.613,288 63.745,271.132 20.144,288 		"/>
		
			<linearGradient id="SVGID_5_" gradientUnits="userSpaceOnUse" x1="-947.7588" y1="1225.7842" x2="-947.2266" y2="1225.252" gradientTransform="matrix(140 0 0 -163 132686 199975)">
			<stop  offset="0" style="stop-color:#131313"/>
			<stop  offset="1" style="stop-color:#202020"/>
		</linearGradient>
		<polygon fill="url(#SVGID_5_)" points="0,190.896 63.745,271.132 57.614,215.352 0,185.18 		"/>
		
			<linearGradient id="triangle36_23_" gradientUnits="userSpaceOnUse" x1="-951.8115" y1="1225.0889" x2="-951.2704" y2="1224.5477" gradientTransform="matrix(115 0 0 -263 109583 322283.25)">
			<stop  offset="0" style="stop-color:#101010"/>
			<stop  offset="1" style="stop-color:#484848"/>
		</linearGradient>
		<polygon id="triangle36_20_" fill="url(#triangle36_23_)" points="131.18,208.725 189.93,220.322 167.962,75.07 		"/>
		
			<linearGradient id="triangle36_24_" gradientUnits="userSpaceOnUse" x1="-962.7822" y1="1225.626" x2="-962.2535" y2="1225.0973" gradientTransform="matrix(66 0 0 -120 63579.9375 147199)">
			<stop  offset="0" style="stop-color:#1E1E1E"/>
			<stop  offset="1" style="stop-color:#1D1D1D"/>
		</linearGradient>
		<polygon id="triangle36_19_" fill="url(#triangle36_24_)" points="35.137,141.344 68.854,191.604 47.909,125.328 		"/>
		
			<linearGradient id="SVGID_6_" gradientUnits="userSpaceOnUse" x1="-991.019" y1="1225.252" x2="-990.4761" y2="1224.709" gradientTransform="matrix(37 0 0 -794 36953 973080)">
			<stop  offset="0" style="stop-color:#060606"/>
			<stop  offset="1" style="stop-color:#030303"/>
		</linearGradient>
		<polygon fill="url(#SVGID_6_)" points="288,288 288,266.064 287.505,252.355 286.853,288 		"/>
		
			<linearGradient id="SVGID_7_" gradientUnits="userSpaceOnUse" x1="-939.7363" y1="1225.5693" x2="-939.1837" y2="1225.0167" gradientTransform="matrix(349 0 0 -125 327835.75 153300)">
			<stop  offset="0" style="stop-color:#1C1C1C"/>
			<stop  offset="1" style="stop-color:#414141"/>
		</linearGradient>
		<polygon fill="url(#SVGID_7_)" points="0,135.575 0,173.904 35.137,141.344 		"/>
		
			<linearGradient id="triangle36_25_" gradientUnits="userSpaceOnUse" x1="-947.646" y1="1225.0566" x2="-947.1183" y2="1224.5289" gradientTransform="matrix(156 0 0 -263 147990 322283.25)">
			<stop  offset="0" style="stop-color:#767676"/>
			<stop  offset="1" style="stop-color:#2F2F2F"/>
		</linearGradient>
		<polygon id="triangle36_18_" fill="url(#triangle36_25_)" points="167.962,75.07 189.93,220.322 247.657,173.93 		"/>
		
			<linearGradient id="triangle36_26_" gradientUnits="userSpaceOnUse" x1="-947.5781" y1="1224.9473" x2="-947.047" y2="1224.4161" gradientTransform="matrix(156 0 0 -286 147990 350351.25)">
			<stop  offset="0" style="stop-color:#5B5B5B"/>
			<stop  offset="1" style="stop-color:#3B3B3B"/>
		</linearGradient>
		<polygon id="triangle36_17_" fill="url(#triangle36_26_)" points="167.962,75.07 199.124,15.975 247.657,173.93 		"/>
		
			<linearGradient id="triangle36_27_" gradientUnits="userSpaceOnUse" x1="-952.5957" y1="1226.3701" x2="-952.0138" y2="1225.7882" gradientTransform="matrix(113 0 0 -84 107828 103187)">
			<stop  offset="0" style="stop-color:#080808"/>
			<stop  offset="1" style="stop-color:#191919"/>
		</linearGradient>
		<polygon id="triangle36_16_" fill="url(#triangle36_27_)" points="189.93,220.322 247.657,173.93 224.667,218.113 		"/>
		
			<linearGradient id="triangle36_28_" gradientUnits="userSpaceOnUse" x1="-951.4287" y1="1225.7695" x2="-950.8926" y2="1225.2334" gradientTransform="matrix(123 0 0 -142 117246 174237)">
			<stop  offset="0" style="stop-color:#3A3A3A"/>
			<stop  offset="1" style="stop-color:#111111"/>
		</linearGradient>
		<polygon id="triangle36_15_" fill="url(#triangle36_28_)" points="247.657,173.93 287.505,252.355 224.667,218.113 		"/>
		
			<linearGradient id="triangle36_29_" gradientUnits="userSpaceOnUse" x1="-957.9678" y1="1228.0107" x2="-957.4371" y2="1227.48" gradientTransform="matrix(86 0 0 -51 82583 62842.0625)">
			<stop  offset="0" style="stop-color:#0E0E0E"/>
			<stop  offset="1" style="stop-color:#050505"/>
		</linearGradient>
		<polygon id="triangle36_14_" fill="url(#triangle36_29_)" points="189.93,220.322 224.667,218.113 233.865,246.279 		"/>
		
			<linearGradient id="SVGID_8_" gradientUnits="userSpaceOnUse" x1="-955.0869" y1="1225.8027" x2="-954.5476" y2="1225.2634" gradientTransform="matrix(99 0 0 -243 94765 298093.25)">
			<stop  offset="0" style="stop-color:#010101"/>
			<stop  offset="1" style="stop-color:#040404"/>
		</linearGradient>
		<polygon fill="url(#SVGID_8_)" points="240.979,288 233.865,246.279 224.495,288 		"/>
		
			<linearGradient id="triangle36_30_" gradientUnits="userSpaceOnUse" x1="-951.4883" y1="1227.3057" x2="-950.9567" y2="1226.7742" gradientTransform="matrix(123 0 0 -62 117246 76317)">
			<stop  offset="0" style="stop-color:#050505"/>
			<stop  offset="1" style="stop-color:#050505"/>
		</linearGradient>
		<polygon id="triangle36_13_" fill="url(#triangle36_30_)" points="224.667,218.113 287.505,252.355 233.865,246.279 		"/>
		
			<linearGradient id="SVGID_9_" gradientUnits="userSpaceOnUse" x1="-957.4556" y1="1225.8379" x2="-956.9336" y2="1225.3159" gradientTransform="matrix(90 0 0 -217 86409 266243)">
			<stop  offset="0" style="stop-color:#151515"/>
			<stop  offset="1" style="stop-color:#0B0B0B"/>
		</linearGradient>
		<polygon fill="url(#SVGID_9_)" points="277.831,288 233.865,246.279 240.979,288 		"/>
		
			<linearGradient id="SVGID_10_" gradientUnits="userSpaceOnUse" x1="-940.3374" y1="1224.4209" x2="-939.8176" y2="1223.9011" gradientTransform="matrix(344 0 0 -213 323486.75 260713)">
			<stop  offset="0" style="stop-color:#353535"/>
			<stop  offset="1" style="stop-color:#444444"/>
		</linearGradient>
		<polygon fill="url(#SVGID_10_)" points="115.795,0 199.124,15.975 193.228,0 		"/>
		
			<linearGradient id="SVGID_11_" gradientUnits="userSpaceOnUse" x1="-940.2559" y1="1224.793" x2="-939.7223" y2="1224.2594" gradientTransform="matrix(344 0 0 -168 323486.75 205740)">
			<stop  offset="0" style="stop-color:#979797"/>
			<stop  offset="1" style="stop-color:#4B4B4B"/>
		</linearGradient>
		<polygon fill="url(#SVGID_11_)" points="50.989,0 167.962,75.07 199.124,15.975 115.795,0 		"/>
		
			<linearGradient id="SVGID_12_" gradientUnits="userSpaceOnUse" x1="-940.0801" y1="1224.8193" x2="-939.5743" y2="1224.3136" gradientTransform="matrix(320 0 0 -365 300720.75 446935.5)">
			<stop  offset="0" style="stop-color:#090909"/>
			<stop  offset="1" style="stop-color:#737373"/>
		</linearGradient>
		<polygon fill="url(#SVGID_12_)" points="0,0 0,12.444 17.881,0 		"/>
		
			<linearGradient id="SVGID_13_" gradientUnits="userSpaceOnUse" x1="-939.6958" y1="1224.9863" x2="-939.1509" y2="1224.4415" gradientTransform="matrix(349 0 0 -259 327835.75 317244.25)">
			<stop  offset="0" style="stop-color:#464646"/>
			<stop  offset="1" style="stop-color:#212121"/>
		</linearGradient>
		<polygon fill="url(#SVGID_13_)" points="17.881,0 0,12.444 0,135.575 35.137,141.344 20.497,0 		"/>
		
			<linearGradient id="SVGID_14_" gradientUnits="userSpaceOnUse" x1="-941.3203" y1="1224.7227" x2="-940.7912" y2="1224.1935" gradientTransform="matrix(289 0 0 -168 272056 205740)">
			<stop  offset="0" style="stop-color:#424242"/>
			<stop  offset="1" style="stop-color:#676767"/>
		</linearGradient>
		<polygon fill="url(#SVGID_14_)" points="23.588,0 167.962,75.07 50.989,0 		"/>
		
			<linearGradient id="SVGID_15_" gradientUnits="userSpaceOnUse" x1="-968.7808" y1="1224.8232" x2="-968.2504" y2="1224.2928" gradientTransform="matrix(54 0 0 -259 52331 317244.25)">
			<stop  offset="0" style="stop-color:#202020"/>
			<stop  offset="1" style="stop-color:#222222"/>
		</linearGradient>
		<polygon fill="url(#SVGID_15_)" points="20.497,0 35.137,141.344 47.909,125.328 20.69,0 		"/>
		
			<linearGradient id="SVGID_16_" gradientUnits="userSpaceOnUse" x1="-945.7432" y1="1227.5625" x2="-945.2233" y2="1227.0426" gradientTransform="matrix(170 0 0 -77 160826 94788)">
			<stop  offset="0" style="stop-color:#282828"/>
			<stop  offset="1" style="stop-color:#2B2B2B"/>
		</linearGradient>
		<polygon fill="url(#SVGID_16_)" points="103.28,288 125.05,279.417 63.745,271.132 53.613,288 		"/>
		
			<linearGradient id="SVGID_17_" gradientUnits="userSpaceOnUse" x1="-945.5962" y1="1226.1846" x2="-945.0853" y2="1225.6737" gradientTransform="matrix(170 0 0 -204 160826 250378)">
			<stop  offset="0" style="stop-color:#0F0F0F"/>
			<stop  offset="1" style="stop-color:#020202"/>
		</linearGradient>
		<polygon fill="url(#SVGID_17_)" points="122.014,288 125.05,279.417 103.28,288 		"/>
		
			<linearGradient id="SVGID_18_" gradientUnits="userSpaceOnUse" x1="-945.0894" y1="1226.0352" x2="-944.5522" y2="1225.498" gradientTransform="matrix(185 0 0 -212 174943 260178)">
			<stop  offset="0" style="stop-color:#000000"/>
			<stop  offset="1" style="stop-color:#090909"/>
		</linearGradient>
		<polygon fill="url(#SVGID_18_)" points="129.057,288 125.05,279.417 122.014,288 		"/>
		
			<linearGradient id="triangle36_31_" gradientUnits="userSpaceOnUse" x1="-950.1587" y1="1226.0713" x2="-949.6415" y2="1225.5541" gradientTransform="matrix(127 0 0 -128 120791 157150)">
			<stop  offset="0" style="stop-color:#0A0A0A"/>
			<stop  offset="1" style="stop-color:#0A0A0A"/>
		</linearGradient>
		<polygon id="triangle36_12_" fill="url(#triangle36_31_)" points="131.18,208.725 189.93,220.322 125.05,279.417 		"/>
		
			<linearGradient id="SVGID_19_" gradientUnits="userSpaceOnUse" x1="-947.4785" y1="1225.9336" x2="-946.9483" y2="1225.4034" gradientTransform="matrix(154 0 0 -212 146036 260178)">
			<stop  offset="0" style="stop-color:#0F0F0F"/>
			<stop  offset="1" style="stop-color:#020202"/>
		</linearGradient>
		<polygon fill="url(#SVGID_19_)" points="131.73,288 125.05,279.417 129.057,288 		"/>
		
			<linearGradient id="triangle36_32_" gradientUnits="userSpaceOnUse" x1="-944.0864" y1="1226.3535" x2="-943.554" y2="1225.821" gradientTransform="matrix(213 0 0 -107 201201 131446)">
			<stop  offset="0" style="stop-color:#060606"/>
			<stop  offset="1" style="stop-color:#010101"/>
		</linearGradient>
		<polygon id="triangle36_11_" fill="url(#triangle36_32_)" points="189.93,220.322 233.865,246.279 125.05,279.417 		"/>
		
			<linearGradient id="SVGID_20_" gradientUnits="userSpaceOnUse" x1="-943.9224" y1="1225.7939" x2="-943.4089" y2="1225.2804" gradientTransform="matrix(213 0 0 -243 201201 298093.25)">
			<stop  offset="0" style="stop-color:#0B0B0B"/>
			<stop  offset="1" style="stop-color:#080808"/>
		</linearGradient>
		<polygon fill="url(#SVGID_20_)" points="224.495,288 233.865,246.279 125.05,279.417 131.73,288 		"/>
		
			<linearGradient id="triangle36_33_" gradientUnits="userSpaceOnUse" x1="-956.6245" y1="1226.4131" x2="-956.1031" y2="1225.8917" gradientTransform="matrix(86 0 0 -101 82324 124087)">
			<stop  offset="0" style="stop-color:#010101"/>
			<stop  offset="1" style="stop-color:#1B1B1B"/>
		</linearGradient>
		<polygon id="triangle36_10_" fill="url(#triangle36_33_)" points="57.614,215.352 63.745,271.132 101.551,234.129 		"/>
		
			<linearGradient id="triangle36_34_" gradientUnits="userSpaceOnUse" x1="-955.7783" y1="1227.6221" x2="-955.2511" y2="1227.0948" gradientTransform="matrix(89 0 0 -54 85129 66492.0625)">
			<stop  offset="0" style="stop-color:#010101"/>
			<stop  offset="1" style="stop-color:#030303"/>
		</linearGradient>
		<polygon id="triangle36_9_" fill="url(#triangle36_34_)" points="57.614,215.352 103.081,204.306 101.551,234.129 		"/>
		
			<linearGradient id="triangle36_35_" gradientUnits="userSpaceOnUse" x1="-950.5625" y1="1226.9492" x2="-950.0216" y2="1226.4083" gradientTransform="matrix(120 0 0 -82 114126 100846)">
			<stop  offset="0" style="stop-color:#333333"/>
			<stop  offset="1" style="stop-color:#0C0C0C"/>
		</linearGradient>
		<polygon id="triangle36_8_" fill="url(#triangle36_35_)" points="63.745,271.132 125.05,279.417 101.551,234.129 		"/>
		
			<linearGradient id="triangle36_36_" gradientUnits="userSpaceOnUse" x1="-967.7627" y1="1227.5205" x2="-967.2461" y2="1227.0039" gradientTransform="matrix(58 0 0 -54 56230 66492.0625)">
			<stop  offset="0" style="stop-color:#010101"/>
			<stop  offset="1" style="stop-color:#040404"/>
		</linearGradient>
		<polygon id="triangle36_7_" fill="url(#triangle36_36_)" points="103.081,204.306 131.18,208.725 101.551,234.129 		"/>
		
			<linearGradient id="triangle36_37_" gradientUnits="userSpaceOnUse" x1="-967.6499" y1="1226.1777" x2="-967.1205" y2="1225.6483" gradientTransform="matrix(58 0 0 -128 56230 157150)">
			<stop  offset="0" style="stop-color:#070707"/>
			<stop  offset="1" style="stop-color:#070707"/>
		</linearGradient>
		<polygon id="triangle36_6_" fill="url(#triangle36_37_)" points="125.05,279.417 131.18,208.725 101.551,234.129 		"/>
		
			<linearGradient id="SVGID_21_" gradientUnits="userSpaceOnUse" x1="-955.2207" y1="1227.2041" x2="-954.6887" y2="1226.672" gradientTransform="matrix(100 0 0 -79 95759 97193)">
			<stop  offset="0" style="stop-color:#272727"/>
			<stop  offset="1" style="stop-color:#1B1B1B"/>
		</linearGradient>
		<polygon fill="url(#SVGID_21_)" points="280.333,288 284.95,270.029 233.865,246.279 277.831,288 		"/>
		
			<linearGradient id="triangle36_38_" gradientUnits="userSpaceOnUse" x1="-954.2109" y1="1229.0693" x2="-953.6788" y2="1228.5372" gradientTransform="matrix(105 0 0 -43 100434 53093.0625)">
			<stop  offset="0" style="stop-color:#060606"/>
			<stop  offset="1" style="stop-color:#050505"/>
		</linearGradient>
		<polygon id="triangle36_5_" fill="url(#triangle36_38_)" points="233.865,246.279 287.505,252.355 284.95,270.029 		"/>
		
			<linearGradient id="SVGID_22_" gradientUnits="userSpaceOnUse" x1="-1141.7896" y1="1225.8262" x2="-1141.2786" y2="1225.3152" gradientTransform="matrix(10 0 0 -271 11699 332436.25)">
			<stop  offset="0" style="stop-color:#070707"/>
			<stop  offset="1" style="stop-color:#060606"/>
		</linearGradient>
		<polygon fill="url(#SVGID_22_)" points="284.889,288 284.95,270.029 280.333,288 		"/>
		
			<linearGradient id="SVGID_23_" gradientUnits="userSpaceOnUse" x1="-1280.4741" y1="1225.6992" x2="-1279.9568" y2="1225.1819" gradientTransform="matrix(6 0 0 -303 7968 371604.25)">
			<stop  offset="0" style="stop-color:#060606"/>
			<stop  offset="1" style="stop-color:#030303"/>
		</linearGradient>
		<polygon fill="url(#SVGID_23_)" points="286.853,288 287.505,252.355 284.95,270.029 284.889,288 		"/>
		
			<linearGradient id="SVGID_24_" gradientUnits="userSpaceOnUse" x1="-944.5981" y1="1224.9727" x2="-944.0589" y2="1224.4335" gradientTransform="matrix(207 0 0 -286 195736 350351.25)">
			<stop  offset="0" style="stop-color:#303030"/>
			<stop  offset="1" style="stop-color:#303030"/>
		</linearGradient>
		<polygon fill="url(#SVGID_24_)" points="288,20.152 199.124,15.975 247.657,173.93 288,66.066 		"/>
		
			<linearGradient id="SVGID_25_" gradientUnits="userSpaceOnUse" x1="-950.7344" y1="1224.4443" x2="-950.2018" y2="1223.9117" gradientTransform="matrix(129 0 0 -97 122884 118738)">
			<stop  offset="0" style="stop-color:#515151"/>
			<stop  offset="1" style="stop-color:#424242"/>
		</linearGradient>
		<polygon fill="url(#SVGID_25_)" points="278.842,0 288,7.368 288,0 		"/>
		
			<linearGradient id="SVGID_26_" gradientUnits="userSpaceOnUse" x1="-953.2188" y1="1224.9365" x2="-952.6943" y2="1224.4121" gradientTransform="matrix(112 0 0 -419 107006 513285)">
			<stop  offset="0" style="stop-color:#686868"/>
			<stop  offset="1" style="stop-color:#474747"/>
		</linearGradient>
		<polygon fill="url(#SVGID_26_)" points="288,66.066 247.657,173.93 287.505,252.355 288,245.76 		"/>
		
			<linearGradient id="SVGID_27_" gradientUnits="userSpaceOnUse" x1="-996.1602" y1="1224.8994" x2="-995.629" y2="1224.3683" gradientTransform="matrix(34 0 0 -1213 34154 1485937)">
			<stop  offset="0" style="stop-color:#060606"/>
			<stop  offset="1" style="stop-color:#1B1B1B"/>
		</linearGradient>
		<polygon fill="url(#SVGID_27_)" points="288,245.76 287.505,252.355 288,266.064 		"/>
		
			<linearGradient id="SVGID_28_" gradientUnits="userSpaceOnUse" x1="-949.3086" y1="1224.7891" x2="-948.7776" y2="1224.2582" gradientTransform="matrix(128 0 0 -230 121521 281719)">
			<stop  offset="0" style="stop-color:#090909"/>
			<stop  offset="1" style="stop-color:#737373"/>
		</linearGradient>
		<polygon fill="url(#SVGID_28_)" points="20.69,0 47.909,125.328 85.714,119.253 21.239,0 		"/>
		
			<linearGradient id="SVGID_29_" gradientUnits="userSpaceOnUse" x1="-941.3408" y1="1224.8242" x2="-940.8141" y2="1224.2975" gradientTransform="matrix(289 0 0 -219 272056 268244)">
			<stop  offset="0" style="stop-color:#696969"/>
			<stop  offset="1" style="stop-color:#D2D2D2"/>
		</linearGradient>
		<polygon fill="url(#SVGID_29_)" points="21.239,0 85.714,119.253 167.962,75.07 23.588,0 		"/>
		
			<linearGradient id="triangle36_39_" gradientUnits="userSpaceOnUse" x1="-959.8989" y1="1225.584" x2="-959.3622" y2="1225.0472" gradientTransform="matrix(74 0 0 -131 71084.9375 160663)">
			<stop  offset="0" style="stop-color:#2B2B2B"/>
			<stop  offset="1" style="stop-color:#565656"/>
		</linearGradient>
		<polygon id="triangle36_4_" fill="url(#triangle36_39_)" points="47.909,125.328 68.854,191.604 85.714,119.253 		"/>
		
			<linearGradient id="triangle36_40_" gradientUnits="userSpaceOnUse" x1="-962.9282" y1="1225.3984" x2="-962.3898" y2="1224.8601" gradientTransform="matrix(67 0 0 -154 64580.9375 188838)">
			<stop  offset="0" style="stop-color:#010101"/>
			<stop  offset="1" style="stop-color:#555555"/>
		</linearGradient>
		<polygon id="triangle36_3_" fill="url(#triangle36_40_)" points="68.854,191.604 103.081,204.306 85.714,119.253 		"/>
		
			<linearGradient id="triangle36_41_" gradientUnits="userSpaceOnUse" x1="-956.2441" y1="1225.3408" x2="-955.7125" y2="1224.8092" gradientTransform="matrix(89 0 0 -162 85184 198638)">
			<stop  offset="0" style="stop-color:#0A0A0A"/>
			<stop  offset="1" style="stop-color:#5C5C5C"/>
		</linearGradient>
		<polygon id="triangle36_2_" fill="url(#triangle36_41_)" points="103.081,204.306 131.18,208.725 85.714,119.253 		"/>
		
			<linearGradient id="triangle36_42_" gradientUnits="userSpaceOnUse" x1="-946.6343" y1="1225.1934" x2="-946.1008" y2="1224.6599" gradientTransform="matrix(161 0 0 -242 152504 296558.25)">
			<stop  offset="0" style="stop-color:#2A2A2A"/>
			<stop  offset="1" style="stop-color:#AAAAAA"/>
		</linearGradient>
		<polygon id="triangle36_1_" fill="url(#triangle36_42_)" points="131.18,208.725 167.962,75.07 85.714,119.253 		"/>
		
			<linearGradient id="SVGID_30_" gradientUnits="userSpaceOnUse" x1="-953.9404" y1="1224.4365" x2="-953.4321" y2="1223.9282" gradientTransform="matrix(103 0 0 -213 98411 260713)">
			<stop  offset="0" style="stop-color:#1E1E1E"/>
			<stop  offset="1" style="stop-color:#4F4F4F"/>
		</linearGradient>
		<polygon fill="url(#SVGID_30_)" points="193.228,0 199.124,15.975 207.705,0 		"/>
		
			<linearGradient id="SVGID_31_" gradientUnits="userSpaceOnUse" x1="-944.7192" y1="1224.1816" x2="-944.1859" y2="1223.6483" gradientTransform="matrix(207 0 0 -40 195736 48970)">
			<stop  offset="0" style="stop-color:#5C5C5C"/>
			<stop  offset="1" style="stop-color:#505050"/>
		</linearGradient>
		<polygon fill="url(#SVGID_31_)" points="207.705,0 199.124,15.975 288,20.152 288,17.084 213.337,0 		"/>
		
			<linearGradient id="SVGID_32_" gradientUnits="userSpaceOnUse" x1="-945.6401" y1="1224.3613" x2="-945.1194" y2="1223.8406" gradientTransform="matrix(189 0 0 -96 178924 117514)">
			<stop  offset="0" style="stop-color:#414141"/>
			<stop  offset="1" style="stop-color:#444444"/>
		</linearGradient>
		<polygon fill="url(#SVGID_32_)" points="213.337,0 288,17.084 288,7.368 278.842,0 		"/>
	</g>
</g>
</svg>
